<svg width="154" height="40" viewBox="0 0 154 40" fill="none" xmlns="http://www.w3.org/2000/svg">
<path d="M13.6116 25.9865C13.6369 27.2466 12.3514 28.5828 10.4857 28.6081C10.1082 28.6081 9.20022 28.5828 8.21801 28.2053C7.1842 27.7762 6.04991 26.9696 4.71464 26.1141C2.59632 24.777 2.49674 24.8286 1.51272 24.0211C0.984047 23.5929 0.734194 23.3422 0.734194 22.962C0.707036 22.408 1.23662 22.1056 2.32022 22.1056C3.02632 22.0803 3.42917 22.2052 3.42917 22.4315C3.45361 22.8099 2.39716 23.0869 2.39716 23.6418C2.39716 23.8184 2.49674 23.9949 2.89959 24.2963C3.65548 24.9527 4.10902 24.9029 4.9663 25.5058C6.83115 26.7659 8.52037 27.8748 10.3345 27.8504C12.3261 27.8232 13.0322 26.4382 13.0322 25.7076C13.0069 24.7997 11.7196 21.4475 9.47814 14.8173C8.36738 16.3816 6.30066 17.5404 4.71374 17.5657C2.41889 17.6182 0.0244672 15.2989 2.50606e-05 12.7787C-0.0506697 10.6622 1.53897 5.31929 2.19257 5.31929C2.29396 5.31929 2.41889 5.47047 2.41889 5.62164C2.41889 6.15032 1.36154 8.94849 1.38689 10.9392C1.43758 13.0819 2.77194 14.2669 4.73818 14.2407C6.30066 14.2162 7.8885 13.4096 8.79648 12.8049C7.66128 9.40112 6.60393 6.10053 6.57858 4.73901C6.55233 2.90133 8.34294 0.505092 9.75243 0.479745C10.8116 0.479745 11.4417 1.81592 11.4661 3.85638C11.5168 5.89775 10.9881 11.0641 10.1806 13.4594C11.3665 17.1149 13.5862 24.3995 13.6116 25.9865ZM7.1842 4.43756C7.20955 5.42068 8.57197 8.8987 9.68001 11.9992C10.4622 10.587 10.6124 8.74752 10.712 6.6808C10.7645 6.0263 10.8388 4.8911 10.8143 3.90798C10.789 2.14453 10.4359 0.983977 9.70536 0.983977C8.6462 1.01113 7.15976 3.3784 7.18601 4.43756H7.1842ZM66.9932 23.87C66.9932 24.5761 66.6401 25.0794 66.1875 25.0794C65.3275 25.1038 63.7668 23.4409 62.5818 21.6014C62.0296 22.4577 61.1461 23.1639 60.239 23.4409C60.1123 23.6427 59.886 23.8193 59.4569 23.8437C58.8268 23.8935 57.8437 23.44 57.3902 22.9611C57.239 22.8597 57.0887 22.7592 56.9375 22.6325C56.3065 23.8184 54.7694 24.6747 53.0041 24.7254C51.9966 24.7254 51.0895 24.472 50.3336 23.9695C49.4763 24.3715 48.4688 24.5733 47.4603 24.5987C45.8969 24.624 44.7382 24.1959 43.9062 23.3648C43.1006 24.3724 41.8395 25.0785 40.8555 25.1029C39.7728 25.1283 38.3362 24.2972 37.4789 22.7583C37.076 23.9442 36.2441 25.4053 35.0093 25.4315C33.7736 25.456 33.3961 23.8184 33.2712 22.6089C33.0177 20.7685 33.1952 19.8868 31.6073 19.9112C31.4552 19.9112 31.2796 19.9628 31.1031 20.038C30.6233 20.2643 30.2205 20.391 29.5913 20.592C28.381 20.9939 27.4983 22.6832 27.473 24.2945L27.826 25.4053C28.4561 27.3969 28.9612 29.1603 29.4392 30.6468C30.1707 32.7904 30.75 34.1773 30.75 35.059C30.7745 35.8149 30.1951 36.1933 29.7905 36.2178C28.1284 36.2449 27.0448 29.4645 26.842 26.1376C26.441 24.5498 25.9865 23.44 25.5837 22.6098C25.3818 22.7864 25.179 22.9629 24.9527 23.0878C24.9781 23.1892 25.0034 23.2643 25.0034 23.3413C25.0034 23.9958 23.8175 24.9273 22.9123 24.9273C22.2813 24.9527 21.5752 24.5236 20.87 23.7432C20.593 23.6165 20.316 23.4897 20.0643 23.3141C19.3328 24.147 18.3497 24.7761 17.5178 24.8024C16.6125 24.8268 15.9571 24.0709 15.5534 23.4409C14.0914 22.6098 13.7637 22.4577 13.7637 21.576C13.7383 20.9695 13.9148 21.4746 13.99 20.2905C14.1149 18.3261 14.1412 18.299 14.468 18.299C15.1243 18.299 15.2012 18.4004 15.3252 18.9797C15.9562 21.4737 15.9318 23.6672 17.4164 23.6418C18.0229 23.6418 18.729 23.239 19.2831 22.7339C18.4502 21.9789 17.8962 21.0202 17.8962 20.0633C17.8708 19.0793 18.4258 18.3994 19.1817 18.3732C20.3658 18.3488 21.1732 20.0362 21.1732 20.9695C21.1732 21.4737 20.9705 22.0287 20.6183 22.5827C21.071 22.9855 21.6259 23.2381 22.2813 23.2381C23.2889 23.2127 24.3725 22.4822 24.9518 21.5489C24.3725 20.6418 23.9198 20.2127 23.9198 19.4324C23.9198 18.5995 24.3978 18.0962 25.2053 18.0962C26.1622 18.0708 26.7678 18.7751 26.7922 19.9112C26.7922 20.3639 26.7171 20.793 26.5406 21.2212C26.7171 21.7752 26.8665 22.331 27.0448 22.8841C27.6486 20.4399 29.4139 19.4079 31.6571 19.3056C33.5464 19.2305 33.6731 19.9121 33.9248 21.5742C34.2262 23.4888 34.5286 24.7499 35.1849 24.7499C35.7896 24.7499 36.6723 23.6409 37.0253 22.5066C36.5202 21.7761 36.2939 21.0193 36.2694 20.3648C36.2441 19.2305 36.8995 17.8436 37.5549 17.8192C37.8319 17.8192 37.7812 18.0455 37.8319 18.4492C37.8319 18.6258 37.984 18.7009 37.984 18.8267C37.984 18.9535 37.8328 19.1798 37.8328 19.3817C37.8582 20.2127 37.9089 20.9948 38.1859 22.0522C38.9173 23.2381 40.0779 24.1959 40.9334 24.1705C41.6892 24.1452 42.7231 23.3884 43.278 22.532C43.0517 22.1789 42.8742 21.7761 42.7475 21.3225C42.4696 20.4662 42.4451 19.7592 42.4198 19.483C42.4198 18.576 42.6968 18.1224 43.3024 18.098C44.0837 18.098 44.5372 18.853 44.5626 19.8108C44.5626 20.5422 44.3091 20.7703 44.3091 21.2728C44.2855 21.825 44.5626 22.0531 44.4114 22.5311C45.0903 23.3639 46.0499 23.7414 47.4857 23.6916C48.2416 23.6663 48.9477 23.5649 49.5786 23.3386C48.7965 22.5057 48.3185 21.347 48.2932 19.9619C48.2687 18.1722 49.0753 17.0877 50.4359 17.0633C51.8979 17.0379 53.0069 18.1967 53.0322 19.9873C53.0594 21.5244 52.3026 22.7329 51.1674 23.5151C51.7223 23.7921 52.3768 23.9179 53.0829 23.9179C54.7459 23.8672 55.8295 23.0353 56.2586 22.0784C55.0998 21.0193 54.2416 19.6071 54.2163 18.423C54.1919 17.8934 54.5947 17.6426 54.8717 17.6426C55.1252 17.6426 55.528 17.6924 55.9309 18.1713C56.4849 18.8014 57.2408 20.6916 57.2661 21.3723V21.3977C57.9478 21.9517 58.7544 22.2287 59.7103 22.2034C60.9469 22.1789 61.6521 21.6991 61.9798 20.592C61.4005 19.5328 60.9967 18.499 60.9714 17.7929C60.9714 17.2389 61.2248 16.8605 61.5761 16.8605C62.3818 16.8361 63.1893 18.5244 63.2146 19.7347V19.7601C63.8193 20.946 64.3236 21.3235 66.0363 22.7592C66.919 23.4925 66.9688 23.5939 66.9959 23.8709L66.9932 23.87ZM19.3582 20.3412C19.3582 20.6689 19.5845 21.3244 20.0127 21.9046C20.2662 21.5271 20.4164 21.1225 20.4164 20.7948C20.4164 20.4182 20.1901 19.7881 19.7864 19.8126C19.5329 19.8126 19.3573 20.0389 19.3573 20.3421L19.3582 20.3412ZM50.4088 22.9873C51.5946 22.3084 52.3243 21.2221 52.3008 19.7872C52.2736 18.451 51.5947 17.6191 50.6106 17.6191C49.6782 17.6445 49.174 18.452 49.1984 19.9384C49.2238 21.2737 49.6782 22.3075 50.4088 22.9873ZM153.895 24.6005C153.895 24.777 153.768 24.9029 153.442 24.9029C152.635 24.9264 151.828 24.2221 150.946 22.9864C150.366 24.0456 149.182 24.7761 147.922 24.8015C146.962 24.8259 145.98 24.4484 145.125 23.8193C144.973 24.9527 143.889 25.6588 142.403 25.6841C140.687 25.7095 138.747 24.8784 137.336 23.7179C136.858 24.5761 136.001 25.0803 134.941 25.1047C134.16 25.1301 133.328 24.8531 132.597 24.3742C131.816 25.0803 130.832 25.5076 129.75 25.5076C128.087 25.5592 126.373 24.6259 125.062 23.0136C124.836 23.1132 124.608 23.2399 124.406 23.3911C124.08 23.8944 123.624 24.3235 123.12 24.5498C122.541 25.1545 122.061 25.6841 121.609 25.6841C120.827 25.7095 120.626 24.701 120.296 23.946C119.693 23.4662 119.137 22.8371 118.685 22.0812C117.45 24.424 116.014 26.4898 114.122 26.517C112.357 26.5667 110.669 24.8024 110.619 22.9366C110.619 22.5591 110.669 22.1807 110.794 21.7779C109.029 22.7855 107.264 23.516 105.5 24.0202C111.122 31.5557 112.91 34.8318 112.987 37.8825C112.987 39.0413 112.761 39.9737 111.625 39.9991C109.81 40.0235 106.787 37.6037 105.4 35.7398C103.057 32.6411 102.553 28.9105 103.209 25.0794C102.049 25.8606 100.789 26.3902 99.7294 26.4156C98.0664 26.44 96.7302 24.8268 96.7058 22.9366C96.7058 22.3328 96.7809 21.7525 96.9828 21.0971C96.6297 21.1732 96.3265 21.2239 95.9997 21.2239H95.672C95.7227 21.4502 95.7471 21.6765 95.7471 21.9028C95.7987 24.1723 93.3029 25.9856 90.2775 26.0363C87.9845 26.0879 86.3215 25.054 85.6652 23.4409H85.4389C85.5149 23.8437 85.5656 24.2972 85.6154 24.7263C85.715 25.609 86.1703 28.0532 86.1703 28.38C86.1948 29.2871 85.2379 30.1181 84.2285 30.1452C83.851 30.1452 82.666 30.0439 81.6322 29.5143C79.9693 30.6477 78.1796 31.4045 76.7682 31.4298C74.2987 31.4787 71.9296 30.0927 71.8798 27.5218C71.8282 25.3039 73.416 24.118 75.8087 23.4391C66.8683 13.2331 63.8936 8.26773 63.8184 4.8404C63.7931 2.04314 66.2382 0.0515551 69.6393 0.00176557C74.7567 -0.0978135 87.989 4.03472 88.0379 7.36156C88.065 8.74662 85.8453 11.2922 83.4011 14.1148C83.5278 14.8209 83.4762 14.7938 84.1824 17.8952C84.2837 18.375 84.8885 20.2905 85.3176 22.6098H85.4425C85.418 22.4831 85.3927 22.3835 85.3927 22.2568C85.3682 22.0803 85.342 21.9282 85.342 21.7525C85.3185 19.2812 87.1326 18.3741 90.3083 18.3234C91.5431 18.299 92.098 18.7009 92.1224 19.7085C92.1478 21.3723 89.6529 22.9095 87.1073 23.3386C87.712 24.3461 88.9214 24.9517 90.4839 24.9255C92.8783 24.8748 94.9704 23.3884 94.9441 21.7245C94.9441 21.5226 94.9197 21.2945 94.8446 21.0682C94.0117 20.8165 93.4323 20.2869 93.4323 19.6831C93.4323 19.3545 93.6333 19.1037 93.9601 19.1037C94.2887 19.1037 94.6164 19.3047 94.8925 19.6071C95.8756 20.3132 96.3047 20.3639 97.2127 20.4399C98.0456 20.5141 98.8512 20.6662 98.8757 22.178C98.8757 22.7845 98.7761 23.4635 98.7761 24.0184C98.7761 24.7245 99.0024 25.2541 99.9846 25.2279C101.143 25.2025 102.605 24.3706 103.79 23.3114C103.184 22.2278 102.831 21.2447 102.806 20.1611C102.781 18.9526 103.21 18.5751 104.167 18.5497C105.679 18.5244 106.839 19.1037 106.839 20.2118C106.864 20.8907 106.537 21.6466 105.983 22.4297C110.419 21.7236 111.931 19.5301 112.812 19.5057C113.115 19.5057 113.292 19.7836 113.292 20.1104C113.316 20.8409 112.408 21.194 112.435 22.4297C112.458 23.7152 113.467 24.8739 114.601 24.8495C115.76 24.8241 117.172 23.5893 117.652 19.6578C117.701 19.2287 117.853 19.0784 118.13 19.0512C118.584 19.0512 118.457 19.4314 118.685 20.0108C119.24 21.2709 121.76 23.2879 122.668 23.2607C123.196 23.2607 123.7 22.6316 123.7 22.0024C123.675 21.5226 123.322 21.3977 123.322 21.0184C123.322 20.6418 123.675 20.2127 124.028 20.1882C124.28 20.1882 124.382 20.4399 124.735 20.8672C126.17 22.6325 128.439 24.4475 129.952 24.4213C130.555 24.4213 131.135 24.118 131.588 23.6138C130.48 22.5564 129.674 21.0935 129.647 19.7076C129.647 19.3798 129.673 19.0775 129.747 18.8005C129.723 18.6493 129.697 18.499 129.747 18.3225C129.848 17.8934 130.303 17.4399 130.53 17.3647C130.63 17.3394 130.881 17.3394 131.133 17.3647C131.284 17.314 131.459 17.2887 131.637 17.2887C133.099 17.2633 134.183 18.5742 134.234 20.5141C134.261 21.6475 133.908 22.7067 133.328 23.5649C133.781 23.7912 134.284 23.9424 134.713 23.9424C135.039 23.9424 135.343 23.841 135.57 23.6645C135.696 23.0607 135.62 22.2034 135.519 21.5226C135.342 21.1442 135.242 20.7667 135.242 20.3883C135.217 19.5826 135.645 19.1789 136.022 19.1789C136.855 19.1789 137.661 20.8174 137.685 22.178C137.685 22.3319 137.685 22.4559 137.661 22.5827C139.249 24.1452 140.787 24.8757 142.424 24.8513C143.735 24.8259 144.34 24.2963 144.34 23.1883V23.1376C143.457 22.255 142.853 21.146 142.828 20.0624C142.828 19.684 142.903 19.5337 143.082 19.5337C143.735 19.5337 144.82 21.5253 145.097 22.9611C145.853 23.5649 146.785 23.8935 147.818 23.8681C149.683 23.8428 150.666 22.7094 150.642 20.6671C150.617 19.8098 150.44 19.961 150.44 19.608C150.44 19.2803 150.616 19.1056 151.096 19.1056C151.272 19.1056 151.348 19.1056 152.128 20.793C152.354 21.2981 152.582 21.3741 152.759 21.7009C153.515 23.2399 153.438 23.4662 153.641 23.946C153.745 24.1959 153.896 24.4231 153.896 24.5996L153.895 24.6005ZM76.8226 23.2155C78.6367 22.8371 80.8057 22.685 83.0236 22.6343C82.064 20.6943 81.1316 18.9046 81.1081 17.9722C81.032 14.2678 81.309 13.8396 81.2846 12.6039C81.2602 11.0922 80.8564 9.63015 80.832 8.09302C80.8066 6.60476 81.1334 5.69769 81.739 5.69769C82.2433 5.67325 82.3438 6.10053 82.3691 6.72969C82.3691 7.03295 82.3438 7.43579 82.3691 7.84045C82.3935 9.3278 82.7222 10.6377 83.125 12.756C85.2162 10.8912 87.081 8.47142 87.0566 7.31177C87.005 4.31173 74.4037 0.883493 69.4628 0.959535C66.6655 1.01113 64.8242 2.22057 64.8504 4.21124C64.8749 5.29484 65.4552 6.85733 66.0852 8.06767C67.5988 11.1166 72.7407 18.1976 76.8235 23.2145L76.8226 23.2155ZM80.249 28.4062C78.8368 26.8428 77.5278 25.3827 76.3183 23.9949C74.277 24.5743 72.9906 25.5818 73.0168 27.4476C73.0422 28.9594 74.1502 29.7415 75.7887 29.7162C77.0235 29.6917 78.7381 29.2128 80.249 28.4062ZM83.4753 23.592L83.3251 23.239C81.1072 23.3141 79.016 23.4155 77.3023 23.7686C78.7906 25.5827 80.1268 27.0954 81.0574 27.9264C82.494 26.994 83.5785 25.7592 83.5523 24.3733C83.5523 24.1959 83.5287 23.9188 83.4771 23.592H83.4753ZM84.9129 27.9011C84.9129 27.548 84.8378 27.119 84.7119 26.6917C84.0819 27.4729 83.3251 28.2035 82.5194 28.8589C82.9992 29.0354 83.5025 29.1612 83.88 29.1359C84.5607 29.1359 84.912 28.4569 84.912 27.9011H84.9129ZM86.6275 21.6258C86.6275 21.9517 86.6773 22.2803 86.7786 22.5582C89.4745 22.2803 91.6164 20.9695 91.5919 19.5835C91.5666 19.1056 91.2389 18.8276 90.7093 18.8276C88.5168 18.8765 86.6012 19.7094 86.6266 21.6249L86.6275 21.6258ZM104.043 20.0633C104.068 20.7196 104.345 21.5 104.825 22.2812C105.504 21.4502 105.934 20.6182 105.934 19.9637C105.934 19.3826 105.378 19.2069 104.848 19.2305C104.219 19.2305 104.043 19.484 104.043 20.0633ZM109.109 31.1772C107.244 28.2044 105.656 26.1621 104.522 24.4738C104.194 26.3133 104.143 28.6579 104.244 30.119C104.445 32.5152 108.756 38.1605 110.948 38.1351C111.476 38.1107 111.729 37.7821 111.702 37.0515C111.678 35.8167 110.947 34.1275 109.107 31.1791L109.109 31.1772ZM132.196 22.761C132.522 22.0821 132.724 21.2492 132.724 20.3666C132.699 19.054 132.219 18.174 131.539 18.174C130.959 18.1985 130.507 18.8801 130.507 19.7112C130.532 20.7196 131.236 21.9037 132.195 22.7619L132.196 22.761Z" fill="white"/>
</svg>
