<svg width="94" height="58" viewBox="0 0 94 58" fill="none" xmlns="http://www.w3.org/2000/svg">
<mask id="mask0_855_776" style="mask-type:luminance" maskUnits="userSpaceOnUse" x="0" y="0" width="94" height="58">
<path d="M93.5485 0H0V57.7799H93.5485V0Z" fill="white"/>
</mask>
<g mask="url(#mask0_855_776)">
<path d="M71.3618 8.49121C71.5022 8.4911 71.6405 8.52546 71.7645 8.59129C71.8886 8.65712 71.9947 8.7524 72.0733 8.86879C72.1521 8.98518 72.2011 9.11913 72.2161 9.25889C72.2311 9.39868 72.2116 9.53993 72.1594 9.67043L56.6833 48.5847C56.6015 48.7904 56.46 48.9669 56.277 49.0914C56.094 49.2159 55.8781 49.2827 55.6569 49.2833H18.1787C18.0269 49.2842 17.8771 49.2477 17.7427 49.1767C17.6084 49.1058 17.4935 49.0028 17.4085 48.8769C17.3233 48.7509 17.2707 48.6059 17.255 48.4546C17.2392 48.3034 17.261 48.1506 17.3185 48.0098L32.7355 9.31925C32.8326 9.07556 33.0003 8.86659 33.2171 8.71933C33.4341 8.57206 33.69 8.49324 33.952 8.49305L71.3618 8.49121Z" fill="#DA291C"/>
<path d="M37.9452 25.331V32.1346C38.6116 34.1677 40.958 36.1676 44.355 36.1676C47.7518 36.1676 49.7843 34.2029 50.6594 32.2381L56.159 34.482C54.4791 38.7959 49.9246 41.707 44.355 41.707C38.2258 41.707 33.4278 38.1953 31.8863 33.7112V23.7526C33.4278 19.2649 38.2258 15.7568 44.355 15.7568C49.9246 15.7568 54.4791 18.6679 56.159 22.9819L50.6594 25.2256C49.7843 23.2628 47.7537 21.298 44.355 21.298C40.9562 21.298 38.6116 23.2979 37.9452 25.331ZM85.3148 23.7526V33.7168C83.8084 38.2396 78.8699 41.7126 72.6338 41.7126C66.357 41.7126 61.461 38.2396 59.8845 33.7168V23.7526C61.461 19.2649 66.3625 15.7568 72.6393 15.7568C78.8699 15.7568 83.8084 19.2297 85.3148 23.7526ZM79.2854 25.331C78.5469 23.2979 76.0288 21.298 72.5969 21.298C69.1649 21.298 66.6413 23.2979 65.9416 25.331V32.1346C66.6413 34.1677 69.1631 36.1676 72.5969 36.1676C76.0306 36.1676 78.5469 34.1677 79.2854 32.1346V25.331ZM23.8224 31.7132L29.3607 40.0953V41.11H23.298L17.7985 32.6965H14.0509V41.11H8.32788V16.3538H17.8742H17.8908C22.9972 16.3538 27.0438 19.1983 28.2771 22.9042V26.453V27.377C27.6051 29.0831 25.9602 30.7318 23.8224 31.7132ZM22.2809 23.2406C21.7916 22.224 20.4956 21.4866 18.8489 21.4866H14.049V28.573H18.8489C20.4956 28.573 21.7916 27.8022 22.2809 26.8189V23.2406Z" fill="white"/>
</g>
</svg>
