<svg width="40" height="40" viewBox="0 0 40 40" fill="none" xmlns="http://www.w3.org/2000/svg">
<g clip-path="url(#clip0_608_214)">
<path d="M40 0H0V40.0675H40V0Z" fill="white"/>
<path d="M32.567 24.057C32.567 23.177 31.907 22.455 31.088 22.455H30.052C29.234 22.455 28.573 23.177 28.573 24.057V36.593C28.573 37.473 29.234 38.195 30.052 38.195H31.088C31.9065 38.195 32.567 37.473 32.567 36.593V24.057ZM24.5715 15.83C23.6935 15.83 22.9725 16.4915 22.9725 17.311V18.4165C22.9725 19.2365 23.686 19.898 24.5715 19.898H36.5985C37.477 19.898 38.198 19.236 38.198 18.4165V17.3115C38.198 16.4915 37.4845 15.8295 36.5985 15.8295L24.5715 15.83ZM15.465 16.4615C16.336 15.6345 16.8765 15.589 17.8375 16.1455C18.7085 16.642 20.2925 18.003 20.7125 19.4545C21.096 20.763 20.375 21.222 19.9695 21.5905C19.557 21.9665 18.303 22.6505 17.5375 21.2595C16.9665 20.2215 16.396 19.718 15.5475 19.071C14.6395 18.379 14.4065 17.4695 15.465 16.4615ZM11.839 37.616C10.968 38.4435 10.6155 38.3985 9.49649 37.902C8.59599 37.5035 6.86149 36.0445 6.44149 34.593C6.05849 33.2845 6.74899 32.856 7.15449 32.4875C7.56699 32.1115 8.82099 31.4195 9.57199 32.826C10.022 33.676 10.9455 34.5105 11.7415 35.014C12.7025 35.616 12.8975 36.601 11.839 37.616ZM17.635 27.0725C18.761 27.8695 21.351 29.7575 21.441 32.6975C21.546 35.946 19.031 37.593 18.0255 38.0595C17.0195 38.5255 16.4035 38.082 15.9605 37.518C15.2475 36.6005 15.15 35.7205 15.8405 35.1415C16.4715 34.615 17.47 34.239 17.4775 33.2315C17.485 31.795 16.5165 31.013 15.03 30.088C13.821 29.343 10.9835 27.3955 10.39 26.9745C9.26399 26.1775 6.14099 24.1845 6.14099 21.3495C6.14099 18.4095 8.25099 16.657 9.25649 16.1905C10.2625 15.7245 10.788 16.0025 11.4035 16.7395C12.207 17.7095 12.2445 18.394 11.5235 18.943C10.8855 19.4245 10.1275 20.0785 10.1275 20.898C10.1275 21.913 10.8405 22.583 12.3125 23.5305C13.5135 24.305 17.042 26.651 17.635 27.0725Z" fill="#289CD7"/>
</g>
<defs>
<clipPath id="clip0_608_214">
<rect width="40" height="40" fill="white"/>
</clipPath>
</defs>
</svg>
