<svg width="121" height="40" viewBox="0 0 121 40" fill="none" xmlns="http://www.w3.org/2000/svg">
<g clip-path="url(#clip0_611_224)">
<path d="M53.0957 0.633691L50.6843 9.32016H50.4467L50.4731 0.62489L46.2046 0.616089L46.143 19.89L50.4202 19.9076L50.429 15.3576L51.5292 12.5413L53.4566 19.9164L57.9186 19.9252L54.4775 9.47858L57.4962 0.642492L53.0957 0.633691Z" fill="white"/>
<path d="M59.7404 22.2663L58.2002 29.967L56.6073 22.2575L51.3443 22.2399L51.2915 39.4192L54.5831 39.428L54.6183 28.3301H54.8647L56.8185 39.4368L59.5292 39.4456L61.4389 28.4357H61.6942L61.659 39.4456L65.0385 39.4632L65.0825 22.2839L59.7404 22.2663Z" fill="white"/>
<path d="M4.84049 39.7096C1.82178 39.7096 -0.00879981 37.9494 1.07345e-06 35.8724V33.813H3.52035V35.2036C3.51313 35.3607 3.53995 35.5175 3.59898 35.6633C3.65802 35.8091 3.74787 35.9404 3.86238 36.0482C3.9769 36.1561 4.11337 36.2378 4.26244 36.288C4.41151 36.3382 4.56967 36.3555 4.72607 36.3389C4.87629 36.3542 5.02803 36.3349 5.16958 36.2823C5.31113 36.2297 5.4387 36.1453 5.54246 36.0356C5.64621 35.9259 5.72337 35.7938 5.76799 35.6495C5.81261 35.5053 5.82348 35.3527 5.79978 35.2036C5.79978 33.7866 4.60286 32.9681 2.78988 31.2872C0.976899 29.6062 0.149616 27.9956 0.149616 26.0066C0.149616 23.6656 1.80418 21.6062 4.9901 21.6062C7.63036 21.6062 9.39054 23.6832 9.39054 25.417V27.5028H5.93179V26.0242C5.9391 25.8959 5.91979 25.7674 5.87507 25.6468C5.83035 25.5263 5.7612 25.4162 5.67195 25.3237C5.58269 25.2311 5.47527 25.158 5.35642 25.109C5.23757 25.0599 5.10985 25.0359 4.9813 25.0385C4.71799 25.0383 4.46478 25.1398 4.27454 25.3218C4.0843 25.5039 3.97175 25.7524 3.9604 26.0154C3.9604 27.406 4.45325 28.022 6.60066 29.9142C8.43124 31.5776 9.63696 33.4346 9.62816 35.318C9.62816 37.6766 7.92959 39.7184 4.86689 39.7184" fill="white"/>
<path d="M45.4037 39.824C42.385 39.824 40.5545 38.0638 40.5633 35.9868V33.9274H44.0836V35.3091C44.0764 35.4662 44.1032 35.6231 44.1622 35.7689C44.2213 35.9147 44.3111 36.046 44.4256 36.1538C44.5402 36.2616 44.6766 36.3434 44.8257 36.3936C44.9748 36.4437 45.1329 36.4611 45.2893 36.4444C45.4399 36.4636 45.5929 36.4477 45.7363 36.398C45.8797 36.3484 46.0097 36.2662 46.1162 36.1581C46.2227 36.0499 46.3028 35.9186 46.3501 35.7744C46.3975 35.6302 46.411 35.477 46.3894 35.3267C46.3894 33.9098 45.1925 33.0913 43.3883 31.4103C41.5842 29.7294 40.7481 28.1188 40.7481 26.1298C40.7481 23.7888 42.4026 21.7294 45.5886 21.7294C48.2288 21.7294 49.989 23.8064 49.989 25.5402V27.626H46.4951V26.1474C46.501 26.0193 46.4808 25.8914 46.4356 25.7714C46.3905 25.6515 46.3213 25.542 46.2323 25.4497C46.1433 25.3574 46.0364 25.2843 45.9181 25.2347C45.7999 25.1852 45.6727 25.1604 45.5446 25.1617C45.2768 25.1569 45.0178 25.2576 44.8235 25.442C44.6293 25.6264 44.5152 25.8797 44.5061 26.1474C44.5061 27.538 44.9989 28.154 47.1463 30.0462C48.9593 31.6832 50.165 33.5754 50.165 35.4411C50.165 37.7998 48.4752 39.8416 45.4125 39.8416" fill="white"/>
<path d="M76.7173 39.9208C73.6986 39.9208 71.8768 38.1606 71.8856 36.0836V34.0242H75.4059V35.4059C75.3982 35.5597 75.423 35.7135 75.4789 35.857C75.5348 36.0005 75.6204 36.1306 75.7301 36.2386C75.8398 36.3467 75.9712 36.4303 76.1155 36.484C76.2599 36.5377 76.414 36.5602 76.5677 36.55C76.7182 36.5692 76.8712 36.5533 77.0146 36.5036C77.1581 36.454 77.2881 36.3718 77.3946 36.2637C77.501 36.1555 77.5811 36.0242 77.6285 35.88C77.6759 35.7358 77.6893 35.5826 77.6678 35.4323C77.6678 34.0154 76.4709 33.1969 74.6579 31.5159C72.8449 29.835 72.0176 28.2244 72.0176 26.2354C72.0176 23.8944 73.6722 21.835 76.8493 21.835C79.4896 21.835 81.2497 23.912 81.2497 25.6457V27.7316H77.8086V26.2442C77.8146 26.1161 77.7944 25.9882 77.7492 25.8682C77.704 25.7483 77.6348 25.6388 77.5458 25.5465C77.4568 25.4542 77.3499 25.3811 77.2317 25.3315C77.1134 25.282 76.9863 25.2572 76.8581 25.2585C76.5918 25.2561 76.3351 25.3577 76.1427 25.5419C75.9504 25.726 75.8376 25.9781 75.8284 26.2442C75.8284 27.6347 76.3212 28.2508 78.4687 30.143C80.2992 31.8064 81.4961 33.6633 81.4873 35.5467C81.4873 37.9054 79.7976 39.9472 76.7349 39.9472" fill="white"/>
<path d="M87.3575 39.9559C84.3388 39.9559 82.5083 38.1958 82.5171 36.1188V34.0593H86.0374V35.4411C86.0302 35.5982 86.057 35.755 86.116 35.9008C86.1751 36.0466 86.2649 36.1779 86.3794 36.2857C86.4939 36.3936 86.6304 36.4754 86.7795 36.5255C86.9286 36.5757 87.0867 36.5931 87.2431 36.5764C87.3937 36.5956 87.5467 36.5797 87.6901 36.53C87.8335 36.4803 87.9635 36.3982 88.07 36.29C88.1765 36.1818 88.2565 36.0505 88.3039 35.9063C88.3513 35.7621 88.3648 35.6089 88.3432 35.4587C88.3432 34.0417 87.1463 33.2233 85.3333 31.5423C83.5204 29.8613 82.6931 28.2508 82.6931 26.2618C82.6931 23.9207 84.3476 21.8613 87.5336 21.8613C90.1738 21.8613 91.934 23.9383 91.934 25.6721V27.7579H88.4488V26.2706C88.4548 26.1425 88.4346 26.0146 88.3894 25.8946C88.3443 25.7746 88.275 25.6651 88.1861 25.5728C88.0971 25.4806 87.9902 25.4074 87.8719 25.3579C87.7537 25.3084 87.6265 25.2835 87.4983 25.2849C87.2305 25.2801 86.9716 25.3808 86.7773 25.5651C86.5831 25.7495 86.469 26.0029 86.4598 26.2706C86.4598 27.6611 86.9527 28.2772 89.1001 30.1694C90.9307 31.8327 92.1364 33.6897 92.1276 35.5731C92.1276 37.9317 90.429 39.9735 87.3751 39.9735" fill="white"/>
<path d="M10.4202 25.1705H12.8229L12.7789 39.2959L16.7481 39.3047L16.7921 25.1881L19.1947 25.1969L19.2035 22.143L10.429 22.1166L10.4202 25.1705Z" fill="white"/>
<path d="M103.85 40C101.096 40 99.0275 37.923 99.0275 36.1892V25.7425C99.0275 23.9824 101.113 21.9494 103.868 21.9582C106.623 21.967 108.673 24.0352 108.664 25.7689V36.2156C108.664 37.9758 106.579 40.0088 103.842 40M103.842 25.3289C103.739 25.3179 103.635 25.3283 103.537 25.3593C103.439 25.3903 103.348 25.4412 103.27 25.509C103.193 25.5768 103.13 25.6598 103.086 25.753C103.042 25.8462 103.017 25.9475 103.014 26.0506V35.8988C103.043 36.093 103.141 36.2704 103.289 36.3987C103.438 36.527 103.628 36.5975 103.824 36.5975C104.02 36.5975 104.21 36.527 104.359 36.3987C104.507 36.2704 104.605 36.093 104.634 35.8988V26.0506C104.633 25.9496 104.611 25.8499 104.57 25.7577C104.529 25.6654 104.47 25.5825 104.396 25.514C104.321 25.4456 104.234 25.3931 104.139 25.3597C104.043 25.3264 103.942 25.3129 103.842 25.3201" fill="white"/>
<path d="M22.2486 39.3224H18.8339L21.4741 22.1606H26.209L28.8493 39.34H25.2673L24.9505 36.8669H22.5831L22.2486 39.3224ZM23.8328 26.9307L23.0055 33.6018H24.6425L24.0264 26.9307H23.8328Z" fill="white"/>
<path d="M35.4059 22.187C37.3069 22.187 39.2607 23.0671 39.2607 25.549V36.022C39.2607 38.4951 37.2893 39.3663 35.3883 39.3575H30.1078V22.1782L35.4059 22.187ZM34.8075 36.0836C34.9017 36.1004 34.9986 36.0943 35.09 36.0659C35.1814 36.0374 35.2646 35.9875 35.3327 35.9203C35.4008 35.853 35.4518 35.7704 35.4814 35.6794C35.511 35.5884 35.5183 35.4916 35.5028 35.3971V26.1034C35.5179 26.0098 35.5106 25.914 35.4815 25.8238C35.4524 25.7336 35.4022 25.6516 35.3352 25.5845C35.2681 25.5175 35.1861 25.4673 35.0959 25.4382C35.0057 25.4091 34.9099 25.4018 34.8163 25.4169H33.901V36.0836H34.8339H34.8075Z" fill="white"/>
<path d="M66.7639 22.2906L66.713 39.4611L70.6998 39.4729L70.7507 22.3024L66.7639 22.2906Z" fill="white"/>
<path d="M93.4128 22.3702L93.3619 39.5406L97.3487 39.5525L97.3996 22.382L93.4128 22.3702Z" fill="white"/>
<path d="M116.779 22.4335L120.308 22.4423L120.255 39.6128L116.788 39.604L113.663 31.3136L113.646 39.5952L110.099 39.5864L110.152 22.4159L113.778 22.4247L116.752 30.8735L116.779 22.4335Z" fill="white"/>
<path d="M11.0803 3.75794L13.8174 3.76674L13.7646 19.8195L18.0066 19.8283L18.0506 3.77554L20.7877 3.78434L20.7965 0.510411L11.0891 0.484009L11.0803 3.75794Z" fill="white"/>
<path d="M88.4841 16.4488L92.2772 16.4576L92.2684 20.066L84.0484 20.0484L84.1012 0.739258L88.5369 0.748059L88.4841 16.4488Z" fill="white"/>
<path d="M65.5754 0.668847L65.549 8.84486L63.1111 8.83606L63.1287 0.668847L58.8603 0.651245L58.8075 19.934L63.0759 19.9428L63.0935 12.5324L65.5402 12.5412L65.5225 19.9516L69.9142 19.9604L69.9758 0.686449L65.5754 0.668847Z" fill="white"/>
<path d="M77.0077 20.4796C73.9538 20.4796 71.6656 18.1474 71.6744 16.1936V4.45324C71.6744 2.49945 73.9802 0.193617 77.0341 0.202418C80.088 0.211219 82.3146 2.53465 82.3146 4.48845V16.2288C82.3146 18.1826 80.0088 20.4884 76.9725 20.4796M77.0517 3.81958C76.7992 3.80675 76.5512 3.89061 76.3583 4.0541C76.1654 4.21759 76.042 4.44843 76.0132 4.69967V16C76.0457 16.248 76.169 16.4752 76.3591 16.6377C76.5493 16.8002 76.7929 16.8866 77.0429 16.8801C77.291 16.8861 77.5324 16.7992 77.7196 16.6363C77.9069 16.4735 78.0265 16.2465 78.055 16V4.69967C78.0285 4.45233 77.9094 4.22417 77.7217 4.06094C77.534 3.89772 77.2915 3.8115 77.0429 3.81958" fill="white"/>
<path d="M26.8955 20.33C23.8416 20.33 21.5534 17.9978 21.5622 16.044V4.30358C21.5622 2.34979 23.868 0.0439586 26.9219 0.0527595C29.9758 0.0615604 32.2024 2.38499 32.2024 4.33879V16.0792C32.2024 18.033 29.8966 20.3388 26.8603 20.33M26.9395 3.66992C26.6869 3.65709 26.439 3.74095 26.2461 3.90444C26.0532 4.06793 25.9298 4.29877 25.901 4.55001V15.8503C25.9316 16.0992 26.0543 16.3275 26.2449 16.4904C26.4355 16.6533 26.6801 16.7389 26.9307 16.7304C27.1788 16.7365 27.4202 16.6495 27.6074 16.4867C27.7947 16.3238 27.9143 16.0969 27.9428 15.8503V4.55001C27.9164 4.30423 27.7986 4.07735 27.6128 3.91434C27.4269 3.75133 27.1866 3.66409 26.9395 3.66992Z" fill="white"/>
<path d="M44.4973 12.7701V16.1144C44.4973 18.6315 42.1914 20.3741 39.1551 20.3653C36.1188 20.3565 33.8042 18.4819 33.8042 16.088V4.22445C33.8042 1.94502 36.11 0.088032 39.1639 0.0968329C42.4819 0.0968329 44.4444 2.21785 44.4444 4.25965V7.7184H40.1936V4.58528C40.1672 4.3395 40.0494 4.11262 39.8636 3.94961C39.6777 3.7866 39.4374 3.69936 39.1903 3.70519C38.9383 3.69446 38.6914 3.77907 38.499 3.94217C38.3065 4.10527 38.1826 4.33489 38.1518 4.58528V15.8856C38.1845 16.1352 38.309 16.3636 38.501 16.5263C38.693 16.6891 38.9388 16.7744 39.1903 16.7657C39.4384 16.7717 39.6798 16.6848 39.8671 16.5219C40.0543 16.3591 40.1739 16.1321 40.2024 15.8856V12.7613H44.5237L44.4973 12.7701Z" fill="white"/>
<path d="M120.572 15.8416C120.572 13.2014 118.812 11.1155 116.814 9.34657C114.543 7.33117 114.174 6.77672 114.174 5.06935C114.214 4.76514 114.362 4.4856 114.592 4.28194C114.822 4.07828 115.117 3.96414 115.424 3.96043C115.735 3.94607 116.039 4.05558 116.27 4.26503C116.501 4.47448 116.64 4.76682 116.656 5.07815V6.83832H120.343V4.5677C120.343 2.66671 118.345 0.343274 115.45 0.334473C112.044 0.334473 110.125 2.5787 110.117 5.07815C110.123 6.16608 110.362 7.24002 110.818 8.2281C111.273 9.21618 111.934 10.0956 112.757 10.8075C114.684 12.5677 116.48 13.9406 116.48 15.6128C116.499 15.801 116.476 15.9911 116.413 16.1693C116.349 16.3475 116.247 16.5092 116.112 16.6426C115.978 16.7759 115.816 16.8776 115.637 16.94C115.459 17.0024 115.268 17.0241 115.08 17.0033C114.897 17.0128 114.714 16.9859 114.541 16.9241C114.368 16.8623 114.209 16.7668 114.073 16.6433C113.937 16.5197 113.827 16.3705 113.749 16.2042C113.671 16.0379 113.627 15.8578 113.619 15.6744V14.1254H110.011V16.4049C110.011 18.6315 111.974 20.5941 115.292 20.6029C118.433 20.6029 120.572 18.7107 120.572 15.8152" fill="white"/>
<path d="M10.6579 15.4807C10.6579 12.8405 8.85368 10.7547 6.89989 8.9857C4.62926 6.9703 4.25962 6.41584 4.25962 4.70847C4.30041 4.39977 4.45267 4.11663 4.68772 3.91238C4.92276 3.70814 5.22437 3.59688 5.53575 3.59956C5.84715 3.58519 6.15158 3.69471 6.38246 3.90415C6.61335 4.1136 6.75192 4.40595 6.76787 4.71727V6.47745H10.4554V4.23322C10.4642 2.33223 8.45764 0 5.56215 0C2.15621 0 0.237621 2.24422 0.22882 4.74367C0.236115 5.83151 0.4754 6.90527 0.930699 7.89327C1.386 8.88127 2.04683 9.76077 2.86908 10.473C4.79648 12.2332 6.60066 13.6062 6.59186 15.2783C6.61139 15.4665 6.58854 15.6567 6.52499 15.8349C6.46144 16.0131 6.3588 16.1748 6.22461 16.3081C6.09041 16.4415 5.92806 16.5431 5.74946 16.6055C5.57087 16.6679 5.38057 16.6896 5.19252 16.6689C4.82275 16.6856 4.46141 16.5552 4.1876 16.3061C3.91379 16.057 3.74981 15.7096 3.73157 15.3399V13.7998H0.0704041V16.0792C0.0704041 18.3058 2.0242 20.2684 5.35093 20.2772C8.49285 20.2772 10.6315 18.385 10.6315 15.4895" fill="white"/>
<path d="M108.84 20.0132L105.074 20.0044L105.118 7.73596L104.836 7.72716L102.697 19.9956L99.6788 19.9868L97.5049 7.60395H97.2233L97.1881 19.978L93.5182 19.9692L93.5798 0.827271L99.4411 0.844872L101.219 9.43453L102.935 0.853673L108.893 0.871275L108.84 20.0132Z" fill="white"/>
</g>
<defs>
<clipPath id="clip0_611_224">
<rect width="120.616" height="40" fill="white"/>
</clipPath>
</defs>
</svg>
