<svg width="244" height="40" viewBox="0 0 244 40" fill="none" xmlns="http://www.w3.org/2000/svg">
<path d="M200.355 32.4834L200.247 32.5524L200.326 32.4932M100.469 20.005C100.469 13.7904 104.227 7.11223 112.493 7.11223C120.76 7.11223 124.518 13.8101 124.518 20.005C124.518 26.1998 120.75 32.8977 112.454 32.8977C104.158 32.8977 100.429 26.2096 100.429 20.005M93.1788 16.1973H87.053V4.074C87.0775 3.57022 86.9981 3.06679 86.8198 2.59498C86.6414 2.12317 86.368 1.69306 86.0165 1.33136C85.665 0.969658 85.2429 0.684093 84.7763 0.492399C84.3098 0.300706 83.8088 0.206977 83.3046 0.217035C82.7947 0.204875 82.2877 0.296328 81.8143 0.485854C81.3409 0.67538 80.9108 0.959036 80.5502 1.31964C80.1896 1.68024 79.9059 2.11029 79.7164 2.58374C79.5269 3.05719 79.4354 3.56418 79.4476 4.074V16.1973H72.8385C72.6806 6.33294 66.397 0.217035 56.3453 0.217035C46.2935 0.217035 40.0099 6.33294 39.852 16.1973H33.0259V4.074C33.0381 3.56418 32.9466 3.05719 32.7571 2.58374C32.5676 2.11029 32.2839 1.68024 31.9233 1.31964C31.5627 0.959036 31.1326 0.67538 30.6592 0.485854C30.1857 0.296328 29.6788 0.204875 29.1689 0.217035C28.6647 0.206977 28.1637 0.300706 27.6972 0.492399C27.2306 0.684093 26.8085 0.969658 26.457 1.33136C26.1054 1.69306 25.832 2.12317 25.6537 2.59498C25.4754 3.06679 25.396 3.57022 25.4205 4.074V24.2072C25.4205 29.7312 22.1751 32.8977 16.5425 32.8977C10.91 32.8977 7.66461 29.7312 7.66461 24.2072V4.074C7.68953 3.5651 7.60849 3.05657 7.42661 2.58063C7.24473 2.10468 6.96599 1.6717 6.60803 1.30911C6.25008 0.946524 5.82072 0.662229 5.34716 0.474241C4.8736 0.286253 4.36615 0.198668 3.85697 0.217035C3.34714 0.204875 2.84015 0.296328 2.36671 0.485854C1.89326 0.67538 1.46321 0.959036 1.10261 1.31964C0.742004 1.68024 0.458348 2.11029 0.268822 2.58374C0.079296 3.05719 -0.0121567 3.56418 3.33728e-06 4.074V23.6745C3.33728e-06 33.7361 6.32306 40 16.5129 40C26.7028 40 32.9568 33.7953 33.016 23.7929H39.8422V36.1529C39.83 36.6627 39.9215 37.1697 40.111 37.6432C40.3005 38.1166 40.5842 38.5467 40.9448 38.9073C41.3054 39.2679 41.7354 39.5515 42.2089 39.7411C42.6823 39.9306 43.1893 40.022 43.6991 40.0099C44.2034 40.0199 44.7044 39.9262 45.1709 39.7345C45.6374 39.5428 46.0596 39.2573 46.4111 38.8956C46.7626 38.5339 47.036 38.1038 47.2143 37.6319C47.3926 37.1601 47.472 36.6567 47.4476 36.1529V16.0197C47.4476 10.4957 50.693 7.32924 56.3255 7.32924C61.9581 7.32924 65.2035 10.4957 65.2035 16.0197V36.1529C65.1796 36.6645 65.2627 37.1754 65.4476 37.6529C65.6325 38.1305 65.915 38.5642 66.2771 38.9264C66.6392 39.2885 67.073 39.571 67.5505 39.7559C68.0281 39.9408 68.539 40.0239 69.0506 40C69.5604 40.0122 70.0674 39.9207 70.5408 39.7312C71.0143 39.5417 71.4443 39.258 71.8049 38.8974C72.1655 38.5368 72.4492 38.1068 72.6387 37.6333C72.8282 37.1599 72.9197 36.6529 72.9075 36.1431V23.7929H79.4969V35.926C79.4848 36.4359 79.5762 36.9429 79.7657 37.4163C79.9553 37.8897 80.2389 38.3198 80.5995 38.6804C80.9601 39.041 81.3902 39.3247 81.8636 39.5142C82.3371 39.7037 82.8441 39.7952 83.3539 39.783C83.8566 39.7874 84.3549 39.6897 84.8188 39.4961C85.2827 39.3024 85.7026 39.0166 86.0529 38.6561C86.4033 38.2956 86.6769 37.8678 86.8573 37.3986C87.0377 36.9293 87.121 36.4284 87.1023 35.926V23.7929H93.2774C94.0688 28.3294 96.4353 32.4412 99.9602 35.4045C103.485 38.3677 107.942 39.9924 112.547 39.9924C117.152 39.9924 121.61 38.3677 125.135 35.4045C128.66 32.4412 131.026 28.3294 131.818 23.7929H137.499V36.1529C137.487 36.6627 137.579 37.1697 137.768 37.6432C137.958 38.1166 138.241 38.5467 138.602 38.9073C138.963 39.2679 139.393 39.5515 139.866 39.7411C140.34 39.9306 140.847 40.022 141.356 40.0099C141.861 40.0199 142.362 39.9262 142.828 39.7345C143.295 39.5428 143.717 39.2573 144.068 38.8956C144.42 38.5339 144.693 38.1038 144.872 37.6319C145.05 37.1601 145.129 36.6567 145.105 36.1529V16.0197C145.105 10.4957 148.35 7.32924 153.983 7.32924C159.615 7.32924 162.861 10.4957 162.861 16.0197V36.1529C162.836 36.6567 162.916 37.1601 163.094 37.6319C163.272 38.1038 163.546 38.5339 163.897 38.8956C164.249 39.2573 164.671 39.5428 165.137 39.7345C165.604 39.9262 166.105 40.0199 166.609 40.0099C167.119 40.022 167.626 39.9306 168.099 39.7411C168.573 39.5515 169.003 39.2679 169.363 38.9073C169.724 38.5467 170.008 38.1166 170.197 37.6432C170.387 37.1697 170.478 36.6627 170.466 36.1529V23.7929H176.247C177.825 33.2725 185.194 39.3391 195.314 39.3391H201.075C201.649 39.3618 202.222 39.2667 202.758 39.0597C203.294 38.8527 203.782 38.5383 204.192 38.1357C204.814 37.4676 205.166 36.5922 205.179 35.6794C205.195 35.0622 205.031 34.4535 204.707 33.9279C204.383 33.4023 203.913 32.9826 203.354 32.7201C202.693 32.4114 201.972 32.2531 201.243 32.2565C201.148 32.2478 201.052 32.2478 200.957 32.2565C201.006 32.2531 201.056 32.2531 201.105 32.2565H195.453C189.534 32.2565 185.332 29.1295 183.98 23.8718H210.219V36.1529C210.209 36.6602 210.301 37.1645 210.49 37.6354C210.678 38.1064 210.961 38.5343 211.319 38.8936C211.677 39.2528 212.104 39.536 212.575 39.7262C213.045 39.9163 213.549 40.0094 214.057 40C214.561 40.0101 215.062 39.9164 215.528 39.7247C215.995 39.533 216.417 39.2474 216.769 38.8857C217.12 38.524 217.394 38.0939 217.572 37.6221C217.75 37.1503 217.83 36.6468 217.805 36.1431V16.0197C217.805 10.4957 221.051 7.32924 226.683 7.32924C232.316 7.32924 235.561 10.4957 235.561 16.0197V36.1529C235.537 36.6559 235.616 37.1585 235.793 37.6296C235.971 38.1007 236.244 38.5303 236.594 38.8919C236.945 39.2535 237.366 39.5392 237.831 39.7315C238.296 39.9238 238.796 40.0186 239.3 40.0099C239.809 40.022 240.316 39.9306 240.79 39.7411C241.263 39.5515 241.693 39.2679 242.054 38.9073C242.415 38.5467 242.698 38.1166 242.888 37.6432C243.077 37.1697 243.169 36.6627 243.157 36.1529V16.5623C243.157 6.48091 236.834 0.217035 226.644 0.217035C216.454 0.217035 210.308 6.33294 210.15 16.1973H184.01C185.361 10.9297 189.534 7.8126 195.482 7.8126H200.986C202.206 7.87333 203.404 7.47968 204.35 6.70779C204.681 6.37648 204.94 5.9801 205.109 5.54372C205.279 5.10734 205.357 4.64047 205.337 4.17265C205.34 4.22848 205.34 4.28451 205.337 4.34034C205.384 3.90763 205.342 3.46982 205.213 3.05408C205.084 2.63834 204.871 2.25354 204.587 1.92357C204.127 1.46693 203.572 1.11643 202.962 0.896626C202.352 0.676817 201.701 0.593008 201.055 0.651067H195.314C185.194 0.651067 177.825 6.71765 176.247 16.1973H170.456C170.298 6.33294 164.015 0.217035 153.963 0.217035C143.911 0.217035 137.618 6.33294 137.47 16.1973H131.768C130.971 11.6668 128.603 7.56218 125.079 4.60466C121.556 1.64714 117.103 0.0259399 112.503 0.0259399C107.903 0.0259399 103.45 1.64714 99.9267 4.60466C96.4034 7.56218 94.0351 11.6668 93.238 16.1973" fill="white"/>
</svg>
