<svg width="512" height="512" viewBox="0 0 512 512" fill="none" xmlns="http://www.w3.org/2000/svg">
  <rect fill="white" d="M0 0h512v512H0Z" />
  <path d="M82 123h78.667s16 0 16 16v235s0 16 -16 16h-78.667s-16 0 -16 -16v-235s0 -16 16 -16" />
  <path d="M216.667 123h78.667s16 0 16 16v235s0 16 -16 16h-78.667s-16 0 -16 -16v-235s0 -16 16 -16" />
  <path d="M335.333 133.667C335.333 127.776 340.109 123 346 123V123C401.228 123 446 167.772 446 223V364.265C446 373.353 446 377.897 444.207 381.358C442.687 384.294 440.294 386.687 437.358 388.208C433.897 390 429.353 390 420.265 390H361.093C351.981 390 347.425 390 343.957 388.199C341.035 386.681 338.652 384.298 337.134 381.376C335.333 377.908 335.333 373.352 335.333 364.24V133.667Z" />
        <style>
        path { fill: #000; }
        @media (prefers-color-scheme: dark) {
            path { fill: #FFF; }
        }
    </style>
</svg>